<svg width="96" height="84" viewBox="0 0 96 84" fill="none" xmlns="http://www.w3.org/2000/svg">
<path d="M37.5447 32.1143C37.5447 32.1143 34.5695 34.1621 33.0148 33.2152C31.4599 32.2683 30.9671 30.24 31.914 28.6853C32.8608 27.1305 34.8889 26.6376 36.4439 27.5844C37.9988 28.5313 37.5447 32.1143 37.5447 32.1143Z" fill="#7A7A7A"/>
<path d="M43.4832 43.4822H53.6125C54.2736 43.4822 54.8707 43.8772 55.1293 44.4858L57.0378 48.9763L53.446 50.8644C52.4314 51.3978 51.1956 50.7581 51.0451 49.6217" stroke="#7A7A7A" stroke-width="3" stroke-miterlimit="10" stroke-linecap="round" stroke-linejoin="round"/>
<path d="M46.2055 49.6744C46.0189 50.7075 44.9269 51.3053 43.9562 50.9058L40.1436 49.3367L41.9399 44.5512C42.1814 43.9082 42.7962 43.4822 43.483 43.4822" stroke="#7A7A7A" stroke-width="3" stroke-miterlimit="10" stroke-linecap="round" stroke-linejoin="round"/>
<path d="M39.0783 64.9431C39.0783 64.9431 37.8937 79.4364 44.0347 81.3221C48.3957 82.6612 52.5224 82.1996 54.0269 80.91C55.4691 79.6739 58.3654 73.5358 57.0377 64.9431" stroke="#7A7A7A" stroke-width="3" stroke-miterlimit="10" stroke-linecap="round" stroke-linejoin="round"/>
<path d="M61.8682 32.1144C61.8682 32.1144 64.8432 34.1621 66.3982 33.2152C67.9531 32.2683 68.4459 30.2401 67.499 28.6853C66.5521 27.1304 64.524 26.6376 62.9691 27.5845C61.4142 28.5314 61.8682 32.1144 61.8682 32.1144Z" fill="#7A7A7A"/>
<path d="M31.1474 53.0967C30.3645 59.0341 34.83 62.5746 38.2094 64.3726C40.182 65.4221 42.5785 65.2267 44.3368 63.8484L48.5908 60.5136L52.8448 63.8484C54.6032 65.2267 56.9997 65.4221 58.9721 64.3726C62.3516 62.5746 66.817 59.0341 66.0341 53.0967" stroke="#7A7A7A" stroke-width="3" stroke-miterlimit="10" stroke-linecap="round" stroke-linejoin="round"/>
<path d="M21.7962 29.2274C17.9779 37.7316 20.9582 50.6949 21.9923 54.5698C22.1934 55.3232 22.1167 56.1117 21.7828 56.8165L18.5072 63.7285C17.4804 65.8953 14.5624 66.2887 13.017 64.4552C7.75584 58.2133 -1.08887 45.6824 2.22367 36.9534C13.8641 6.27986 28.3767 7.05039 28.3767 7.05039C33.0664 3.86344 49.975 -4.38397 69.2726 8.49256C69.2726 8.49256 83.5003 5.66179 93.8925 36.4089C96.8652 45.204 88.2397 57.6159 83.0958 63.8418C81.561 65.6993 78.619 65.3151 77.5871 63.1377L74.3334 56.2719C73.9995 55.5673 73.9228 54.7787 74.1239 54.0253C75.1581 50.1505 78.1382 37.1872 74.32 28.6828" stroke="#7A7A7A" stroke-width="3" stroke-miterlimit="10" stroke-linecap="round" stroke-linejoin="round"/>
<path d="M75.6592 59.0688C75.6592 59.0688 70.5859 70.1474 62.7952 72.7014" stroke="#7A7A7A" stroke-width="3" stroke-miterlimit="10" stroke-linecap="round" stroke-linejoin="round"/>
<path d="M20.9492 59.9033C20.9492 59.9033 26.0225 69.9281 33.8132 72.4823" stroke="#7A7A7A" stroke-width="3" stroke-miterlimit="10" stroke-linecap="round" stroke-linejoin="round"/>
<path d="M48.5907 60.5136V55.5195" stroke="#7A7A7A" stroke-width="3" stroke-miterlimit="10" stroke-linecap="round" stroke-linejoin="round"/>
</svg>
