<svg width="87" height="95" viewBox="0 0 87 95" fill="none" xmlns="http://www.w3.org/2000/svg">
<path d="M57.8308 50.8765C59.3419 50.8765 60.567 48.7839 60.567 46.2025C60.567 43.6212 59.3419 41.5286 57.8308 41.5286C56.3196 41.5286 55.0946 43.6212 55.0946 46.2025C55.0946 48.7839 56.3196 50.8765 57.8308 50.8765Z" fill="#666666"/>
<path d="M27.5074 50.8765C29.0186 50.8765 30.2436 48.7839 30.2436 46.2025C30.2436 43.6212 29.0186 41.5286 27.5074 41.5286C25.9963 41.5286 24.7712 43.6212 24.7712 46.2025C24.7712 48.7839 25.9963 50.8765 27.5074 50.8765Z" fill="#666666"/>
<path d="M35.9684 61.3708L42.7905 66.0113L49.1277 61.3708" stroke="#666666" stroke-width="3" stroke-miterlimit="10" stroke-linecap="round" stroke-linejoin="round"/>
<path d="M42.7904 66.0112V73.1102C42.7904 73.1102 40.9549 79.2397 33.5789 77.8891" stroke="#666666" stroke-width="3" stroke-miterlimit="10" stroke-linecap="round" stroke-linejoin="round"/>
<path d="M9.27125 63.444C1.13835 51.3871 5.94449 37.061 5.94449 37.061C5.94449 37.061 -2.78215 12.3355 5.21727 1.73886C5.21727 1.73886 20.4889 4.23219 31.2933 13.9977C38.9305 10.7765 46.5151 10.652 54.0449 13.7589C64.8493 3.99332 80.121 1.5 80.121 1.5C88.1204 12.0966 79.3937 36.8221 79.3937 36.8221C79.3937 36.8221 84.1999 51.1483 76.067 63.2052" stroke="#666666" stroke-width="3" stroke-miterlimit="10" stroke-linecap="round" stroke-linejoin="round"/>
<path d="M7.39893 7.97217C7.39893 7.97217 28.6961 18.2571 24.125 27.6071" stroke="#666666" stroke-width="3" stroke-miterlimit="10" stroke-linecap="round" stroke-linejoin="round"/>
<path d="M24.1937 67.4324C24.1937 67.4324 8.63282 66.6711 1.50024 79.9394" stroke="#666666" stroke-width="3" stroke-miterlimit="10" stroke-linecap="round" stroke-linejoin="round"/>
<path d="M42.5479 65.7725V72.8715C42.5479 72.8715 44.3833 79.0009 51.7594 77.6503" stroke="#666666" stroke-width="3" stroke-miterlimit="10" stroke-linecap="round" stroke-linejoin="round"/>
<path d="M77.9393 7.7334C77.9393 7.7334 56.6421 18.0184 61.2132 27.3683" stroke="#666666" stroke-width="3" stroke-miterlimit="10" stroke-linecap="round" stroke-linejoin="round"/>
<path d="M61.3536 73.7627C61.3536 73.7627 75.0031 77.495 75.7809 92.5388" stroke="#666666" stroke-width="3" stroke-miterlimit="10" stroke-linecap="round" stroke-linejoin="round"/>
<path d="M62.8069 67.1936C62.8069 67.1936 78.3677 66.4323 85.5003 79.7006" stroke="#666666" stroke-width="3" stroke-miterlimit="10" stroke-linecap="round" stroke-linejoin="round"/>
<path d="M35.0592 83.8625C41.5086 86.6626 44.4476 86.87 50.5213 83.8625" stroke="#666666" stroke-width="3" stroke-miterlimit="10" stroke-linecap="round" stroke-linejoin="round"/>
<path d="M25.1836 73.7627C25.1836 73.7627 11.5341 77.495 10.7563 92.5388" stroke="#666666" stroke-width="3" stroke-miterlimit="10" stroke-linecap="round" stroke-linejoin="round"/>
</svg>
