<svg width="85" height="89" viewBox="0 0 85 89" fill="none" xmlns="http://www.w3.org/2000/svg">
<path fill-rule="evenodd" clip-rule="evenodd" d="M27.1837 1.86056C22.3857 4.06356 20.2947 6.27355 18.1487 11.4086C16.0597 16.4076 16.8917 19.9796 20.1437 19.9796C21.4757 19.9796 22.8437 19.5296 23.1837 18.9796C23.5397 18.4036 28.8607 17.9796 35.7427 17.9796H47.6837V21.3546C47.6837 24.3546 47.3267 24.8006 44.4707 25.3726C42.0127 25.8636 36.3647 30.8876 20.4627 46.7236C9.02571 58.1136 -0.181289 67.8926 0.00271064 68.4556C0.512711 70.0146 5.29671 70.2586 7.88471 68.8586C10.2547 67.5756 18.5217 66.7956 20.0397 67.7116C20.5097 67.9956 16.9097 72.2466 12.0397 77.1586C1.35571 87.9326 1.57171 88.6666 15.3427 88.3876C20.2047 88.2896 24.4777 88.1576 24.8367 88.0946C25.1957 88.0316 29.9207 83.6966 35.3367 78.4616C40.7527 73.2276 46.0837 68.7506 47.1837 68.5146C48.2837 68.2786 51.7617 67.8046 54.9127 67.4626C62.5617 66.6326 71.6437 61.9676 76.6217 56.3136C82.0917 50.0986 84.6837 42.7566 84.6837 33.4776C84.6837 26.4106 84.4047 25.5026 78.9337 14.7646C71.2917 -0.233445 71.7217 -0.0234446 48.6837 0.00355542C33.8497 0.0205554 30.5747 0.303555 27.1837 1.86056ZM37.6837 3.01156C37.6837 5.48156 34.7107 10.8126 32.2577 12.7426C30.7907 13.8966 28.1487 15.1476 26.3867 15.5216C24.6247 15.8956 22.4057 16.8886 21.4547 17.7266C19.9017 19.0956 19.6627 19.0886 19.1137 17.6566C17.5597 13.6076 22.9757 5.36956 28.6837 3.10056C32.0167 1.77556 37.6837 1.71956 37.6837 3.01156ZM47.6837 8.97956V15.9796H40.0947H32.5057L35.0677 12.9346C36.4777 11.2596 38.1637 8.10956 38.8157 5.93456C39.9287 2.21956 40.2337 1.97956 43.8417 1.97956H47.6837V8.97956ZM61.0487 4.05256C63.6557 6.10256 63.6837 6.26256 63.6837 19.2396V32.3536L60.7967 29.5876C59.2087 28.0666 56.1707 26.2246 54.0467 25.4956L50.1837 24.1706L49.8957 14.3956C49.7367 9.02056 49.8347 4.02756 50.1137 3.30056C50.9247 1.18756 58.0277 1.67556 61.0487 4.05256ZM68.6577 3.46656C70.6407 4.49156 73.1847 7.98056 76.8587 14.7166L82.1837 24.4796V33.9796C82.1837 45.2216 80.0497 50.5446 72.8987 57.1356C65.6727 63.7956 61.0727 65.3006 46.6837 65.7116C39.8087 65.9076 33.0957 66.3006 31.7667 66.5846C30.4377 66.8686 24.7467 71.5736 19.1207 77.0406C9.77371 86.1226 6.68371 88.3896 6.68371 86.1646C6.68371 85.1156 31.6227 60.0826 33.8607 58.8846C34.7907 58.3866 39.3357 57.9796 43.9607 57.9796C54.2907 57.9796 59.9417 55.4916 63.4387 49.4046C65.5997 45.6426 65.6837 44.6486 65.4387 25.4796C65.2987 14.4796 64.7977 4.69256 64.3267 3.72956C63.2527 1.53756 64.7517 1.44656 68.6577 3.46656ZM53.9927 7.61556C52.5347 11.4156 57.8267 14.2856 59.9837 10.8656C61.5117 8.44355 60.0997 5.97956 57.1837 5.97956C55.7337 5.97956 54.3487 6.68956 53.9927 7.61556ZM58.1837 9.97956C57.6997 10.7626 57.1247 10.8206 56.4577 10.1536C55.9077 9.60355 55.7847 8.62556 56.1837 7.97956C56.6677 7.19656 57.2427 7.13856 57.9097 7.80556C58.4597 8.35556 58.5827 9.33356 58.1837 9.97956ZM57.2837 30.3796C59.1537 32.2496 60.7337 34.8366 60.7947 36.1296C61.1367 43.4046 59.3837 46.9456 54.2237 49.3936C51.6777 50.6016 47.6197 50.9796 37.1927 50.9796H23.5037L14.0357 60.1226C6.88971 67.0226 4.28671 68.9826 3.41671 68.1126C2.54671 67.2426 6.65471 62.6106 20.1697 49.2196C42.3057 27.2876 42.7047 26.9796 48.9777 26.9796C53.2237 26.9796 54.3407 27.4366 57.2837 30.3796ZM62.0077 48.1566C58.4567 54.2186 55.6487 55.4206 43.7327 55.9756L32.9187 56.4796L27.8437 61.2296C23.2007 65.5756 19.6837 67.2576 19.6837 65.1316C19.6837 64.6656 22.3507 61.7406 25.6097 58.6316L31.5357 52.9796H41.1417C46.9927 52.9796 52.0237 52.4466 54.0127 51.6156C57.6277 50.1056 62.6077 44.7536 62.8197 42.1526C62.8987 41.1866 63.1407 41.4426 63.3937 42.7606C63.6337 44.0156 63.0107 46.4436 62.0077 48.1566ZM21.6837 59.4796C15.8157 65.4006 12.6837 67.3676 12.6837 65.1316C12.6837 63.5326 24.5347 52.9796 26.3307 52.9796C27.5807 52.9796 26.1707 54.9526 21.6837 59.4796ZM31.2017 71.9616C25.6557 77.6406 27.6737 78.1986 33.6257 72.6306C36.5227 69.9216 39.5457 67.9796 40.8687 67.9796C42.7467 67.9796 41.6737 69.4616 34.6617 76.5486C25.6237 85.6836 23.2687 87.4595 21.5807 86.4165C20.9267 86.0115 21.5787 84.6556 23.2787 82.8806C27.7027 78.2626 25.0717 78.1825 20.3747 82.7915C16.3897 86.7035 13.6837 88.0656 13.6837 86.1606C13.6837 84.5116 31.4827 67.9796 33.2577 67.9796C34.6897 67.9796 34.2397 68.8496 31.2017 71.9616Z" fill="#666666"/>
</svg>
