<svg width="33" height="24" viewBox="0 0 33 24" fill="none" xmlns="http://www.w3.org/2000/svg">
<g clip-path="url(#clip0_277_1003)">
<path d="M0 2.42865V1.5927C0 1.05245 0.217299 0.534317 0.604092 0.152298C0.990886 -0.22972 1.51549 -0.444336 2.0625 -0.444336L30.9375 -0.444336C31.4845 -0.444336 32.0091 -0.22972 32.3959 0.152298C32.7827 0.534317 33 1.05245 33 1.5927V2.42865L16.5 12.6138L0 2.42865ZM17.0466 14.6789C16.8826 14.7799 16.6933 14.8335 16.5 14.8335C16.3067 14.8335 16.1174 14.7799 15.9534 14.6789L0 4.83083V21.9631C0 22.5033 0.217299 23.0215 0.604092 23.4035C0.990886 23.7855 1.51549 24.0001 2.0625 24.0001H30.9375C31.4845 24.0001 32.0091 23.7855 32.3959 23.4035C32.7827 23.0215 33 22.5033 33 21.9631V4.83083L17.0466 14.6789Z" fill="#84B59F"/>
</g>
<defs>
<clipPath id="clip0_277_1003">
<rect width="33" height="24" fill="white"/>
</clipPath>
</defs>
</svg>
