<svg width="30" height="29" viewBox="0 0 30 29" fill="none" xmlns="http://www.w3.org/2000/svg">
<path d="M23.01 5.017C22.654 5.017 22.306 5.11905 22.01 5.31024C21.714 5.50144 21.4833 5.77319 21.347 6.09113C21.2108 6.40907 21.1751 6.75893 21.2446 7.09646C21.314 7.43398 21.4855 7.74402 21.7372 7.98737C21.9889 8.23071 22.3097 8.39643 22.6588 8.46357C23.008 8.5307 23.3699 8.49625 23.6988 8.36455C24.0277 8.23285 24.3089 8.00983 24.5066 7.72369C24.7044 7.43755 24.81 7.10114 24.81 6.757C24.81 6.29552 24.6204 5.85295 24.2828 5.52663C23.9452 5.20032 23.4874 5.017 23.01 5.017ZM29.91 8.526C29.8808 7.32293 29.6477 6.13263 29.22 5.0025C28.8386 4.03554 28.245 3.15995 27.48 2.436C26.7372 1.69277 25.8293 1.12256 24.825 0.7685C23.659 0.342433 22.4263 0.111954 21.18 0.0869999C19.59 -8.10251e-08 19.08 0 15 0C10.92 0 10.41 -8.10251e-08 8.82 0.0869999C7.57373 0.111954 6.34101 0.342433 5.175 0.7685C4.17251 1.12614 3.2654 1.69586 2.52 2.436C1.75114 3.15401 1.16126 4.03164 0.795 5.0025C0.354241 6.12965 0.115815 7.32127 0.0899999 8.526C-8.3819e-08 10.063 0 10.556 0 14.5C0 18.444 -8.3819e-08 18.937 0.0899999 20.474C0.115815 21.6787 0.354241 22.8704 0.795 23.9975C1.16126 24.9684 1.75114 25.846 2.52 26.564C3.2654 27.3041 4.17251 27.8739 5.175 28.2315C6.34101 28.6576 7.57373 28.888 8.82 28.913C10.41 29 10.92 29 15 29C19.08 29 19.59 29 21.18 28.913C22.4263 28.888 23.659 28.6576 24.825 28.2315C25.8293 27.8774 26.7372 27.3072 27.48 26.564C28.2484 25.8427 28.8425 24.9664 29.22 23.9975C29.6477 22.8674 29.8808 21.6771 29.91 20.474C29.91 18.937 30 18.444 30 14.5C30 10.556 30 10.063 29.91 8.526ZM27.21 20.3C27.1991 21.2204 27.0266 22.1324 26.7 22.997C26.4605 23.628 26.0758 24.1982 25.575 24.6645C25.0885 25.1437 24.4998 25.5148 23.85 25.752C22.9556 26.0677 22.0122 26.2344 21.06 26.245C19.56 26.3175 19.005 26.332 15.06 26.332C11.115 26.332 10.56 26.332 9.06 26.245C8.07134 26.2629 7.08689 26.1157 6.15 25.81C5.52867 25.5607 4.96703 25.1905 4.5 24.7225C4.00213 24.2567 3.62226 23.686 3.39 23.055C3.02378 22.178 2.82067 21.2453 2.79 20.3C2.79 18.85 2.7 18.3135 2.7 14.5C2.7 10.6865 2.7 10.15 2.79 8.7C2.79672 7.75903 2.97443 6.82652 3.315 5.945C3.57907 5.33297 3.9844 4.78741 4.5 4.35C4.95572 3.85144 5.51893 3.45549 6.15 3.19C7.06433 2.87106 8.028 2.70437 9 2.697C10.5 2.697 11.055 2.61 15 2.61C18.945 2.61 19.5 2.61 21 2.697C21.9522 2.70756 22.8956 2.87426 23.79 3.19C24.4716 3.43455 25.0834 3.83213 25.575 4.35C26.0666 4.79541 26.4506 5.33996 26.7 5.945C27.0334 6.82795 27.2059 7.76008 27.21 8.7C27.285 10.15 27.3 10.6865 27.3 14.5C27.3 18.3135 27.285 18.85 27.21 20.3ZM15 7.0615C13.4787 7.06437 11.9924 7.50306 10.729 8.32216C9.46552 9.14125 8.48157 10.304 7.90145 11.6634C7.32133 13.0229 7.17109 14.5181 7.46969 15.96C7.7683 17.402 8.50235 18.7261 9.57911 19.7649C10.6559 20.8038 12.027 21.5108 13.5193 21.7966C15.0116 22.0825 16.558 21.9343 17.9632 21.3709C19.3684 20.8075 20.5693 19.854 21.4142 18.6311C22.2591 17.4082 22.71 15.9706 22.71 14.5C22.712 13.5214 22.5138 12.5521 22.1269 11.6478C21.7399 10.7435 21.1718 9.92207 20.4553 9.23077C19.7388 8.53947 18.8879 7.99193 17.9517 7.61965C17.0155 7.24736 16.0123 7.05768 15 7.0615ZM15 19.3285C14.0121 19.3285 13.0464 19.0453 12.2249 18.5148C11.4035 17.9842 10.7633 17.2301 10.3852 16.3478C10.0072 15.4655 9.90824 14.4946 10.101 13.558C10.2937 12.6214 10.7694 11.761 11.468 11.0857C12.1666 10.4105 13.0566 9.95059 14.0255 9.76428C14.9945 9.57797 15.9988 9.67359 16.9115 10.039C17.8242 10.4045 18.6043 11.0234 19.1532 11.8174C19.702 12.6115 19.995 13.545 19.995 14.5C19.995 15.1341 19.8658 15.762 19.6148 16.3478C19.3638 16.9336 18.9958 17.4659 18.532 17.9143C18.0682 18.3626 17.5175 18.7183 16.9115 18.961C16.3055 19.2036 15.656 19.3285 15 19.3285Z" fill="#84B59F"/>
</svg>
