<svg width="21" height="24" viewBox="0 0 21 24" fill="none" xmlns="http://www.w3.org/2000/svg">
<path d="M15.8874 15.1053L14.131 16.2334C13.9202 16.3687 13.6764 16.4216 13.4368 16.3841C13.1972 16.3466 12.9749 16.2207 12.8039 16.0256L6.94177 9.34192C6.7708 9.14688 6.66045 8.89346 6.62754 8.62028C6.59464 8.3471 6.64097 8.06914 6.75949 7.82877L7.74897 5.82625C7.92708 5.46584 7.99682 5.04886 7.94752 4.63901C7.89823 4.22916 7.73261 3.84898 7.47598 3.55654L4.84353 0.555156C4.68924 0.379156 4.50605 0.239539 4.30442 0.144284C4.10279 0.0490282 3.88667 0 3.66842 0C3.45017 0 3.23405 0.0490282 3.03242 0.144284C2.83079 0.239539 2.6476 0.379156 2.49331 0.555156L1.29804 1.91698C0.599081 2.71388 0.153859 3.75434 0.033166 4.8729C-0.0875273 5.99147 0.123237 7.12393 0.631947 8.09022L1.23168 9.22987C4.29439 15.0497 8.61732 19.8746 13.7858 23.2418L13.9042 23.3193C15.6698 24.4695 17.8512 24.1343 19.2649 22.5235L20.5131 21.1004C20.6675 20.9245 20.7899 20.7156 20.8735 20.4857C20.957 20.2558 21 20.0094 21 19.7606C21 19.5117 20.957 19.2653 20.8735 19.0354C20.7899 18.8056 20.6675 18.5967 20.5131 18.4208L17.879 15.4175C17.6225 15.1245 17.2889 14.9354 16.9293 14.879C16.5696 14.8226 16.2037 14.9021 15.8874 15.1053Z" fill="#84B59F"/>
</svg>
